HIERARCHY
ROOT joint_Root
{
  OFFSET 0 0 0
  CHANNELS 6 Xposition Yposition Zposition Zrotation Xrotation Yrotation
  JOINT Hips
  {
    OFFSET 0 93.9241 -3
    CHANNELS 6 Xposition Yposition Zposition Zrotation Xrotation Yrotation
    JOINT Spine
    {
      OFFSET 15.7357 0 0
      CHANNELS 6 Xposition Yposition Zposition Zrotation Xrotation Yrotation
      JOINT Chest
      {
        OFFSET 8.98455 -0.406207 0
        CHANNELS 6 Xposition Yposition Zposition Zrotation Xrotation Yrotation
        JOINT Neck
        {
          OFFSET 16.3773 0 0
          CHANNELS 6 Xposition Yposition Zposition Zrotation Xrotation Yrotation
          JOINT Head
          {
            OFFSET 6.45672 0 0
            CHANNELS 6 Xposition Yposition Zposition Zrotation Xrotation Yrotation
            End Site
            {
              OFFSET 0 0 0
            }
          }
        }
        JOINT Shoulder_L
        {
          OFFSET 12.9942 -0.242716 4.98039
          CHANNELS 6 Xposition Yposition Zposition Zrotation Xrotation Yrotation
          JOINT UpperArm_L
          {
            OFFSET 5.34809 0 0
            CHANNELS 6 Xposition Yposition Zposition Zrotation Xrotation Yrotation
            JOINT LowerArm_L
            {
              OFFSET 24.3286 1.87007e-05 0
              CHANNELS 6 Xposition Yposition Zposition Zrotation Xrotation Yrotation
              JOINT Hand_L
              {
                OFFSET 22.2916 0 0
                CHANNELS 6 Xposition Yposition Zposition Zrotation Xrotation Yrotation
                End Site
                {
                  OFFSET 0 0 0
                }
              }
            }
          }
        }
        JOINT Shoulder_R
        {
          OFFSET 12.9945 -0.242716 -4.98039
          CHANNELS 6 Xposition Yposition Zposition Zrotation Xrotation Yrotation
          JOINT UpperArm_R
          {
            OFFSET -5.34813 0 0
            CHANNELS 6 Xposition Yposition Zposition Zrotation Xrotation Yrotation
            JOINT LowerArm_R
            {
              OFFSET -24.3289 0.000322201 0
              CHANNELS 6 Xposition Yposition Zposition Zrotation Xrotation Yrotation
              JOINT Hand_R
              {
                OFFSET -22.2915 -0.000108084 0
                CHANNELS 6 Xposition Yposition Zposition Zrotation Xrotation Yrotation
                End Site
                {
                  OFFSET 0 0 0
                }
              }
            }
          }
        }
      }
    }
    JOINT UpperLeg_L
    {
      OFFSET -2.19248 -6.46944 0
      CHANNELS 6 Xposition Yposition Zposition Zrotation Xrotation Yrotation
      JOINT LowerLeg_L
      {
        OFFSET 39.0811 0 -1.23785e-05
        CHANNELS 6 Xposition Yposition Zposition Zrotation Xrotation Yrotation
        JOINT Foot_L
        {
          OFFSET 40.9854 0 -1.26872e-05
          CHANNELS 6 Xposition Yposition Zposition Zrotation Xrotation Yrotation
          JOINT Toes_L
          {
            OFFSET 11.7543 0 0
            CHANNELS 6 Xposition Yposition Zposition Zrotation Xrotation Yrotation
            End Site
            {
              OFFSET 0 0 0
            }
          }
        }
      }
    }
    JOINT UpperLeg_R
    {
      OFFSET -2.19251 6.46944 0
      CHANNELS 6 Xposition Yposition Zposition Zrotation Xrotation Yrotation
      JOINT LowerLeg_R
      {
        OFFSET -39.0811 -0.00228153 -0.0401928
        CHANNELS 6 Xposition Yposition Zposition Zrotation Xrotation Yrotation
        JOINT Foot_R
        {
          OFFSET -40.9854 0 0
          CHANNELS 6 Xposition Yposition Zposition Zrotation Xrotation Yrotation
          JOINT Toes_R
          {
            OFFSET -11.7543 0 0
            CHANNELS 6 Xposition Yposition Zposition Zrotation Xrotation Yrotation
            End Site
            {
              OFFSET 0 0 0
            }
          }
        }
      }
    }
  }
}
MOTION
Frames:	6
Frame Time:	0.0333333
0 0 0 0 0 -0 254.709 89.6784 1.3897 64.7499 -70.0915 -23.263 15.7357 5.1072e-06 -5.51765e-07 168.868 84.5935 -165.263 8.98455 -0.406207 -4.3199e-07 -6.04306 10.1607 7.76967 16.3773 -1.3905e-06 -6.99897e-07 -7.48524 17.9088 2.86802 6.45672 -1.25837e-06 -1.02172e-07 -3.5969 20.3341 -3.56185 12.9942 -0.242716 4.98039 -89.2235 -2.30093 -86.3453 5.34809 -7.22636e-06 -6.2814e-07 -57.1733 -12.2081 29.6749 24.3286 1.87007e-05 4.90208e-06 0.891909 5.90756 -8.60063 22.2916 -9.88446e-07 4.63217e-06 2.96337 5.2716 0.855042 12.9945 -0.242716 -4.98039 89.6651 4.22766 -100.467 -5.34813 -1.25947e-06 -3.79883e-06 -48.7341 -24.9451 7.26338 -24.3289 0.000322201 -8.65921e-06 1.10812 4.70394 -13.2838 -22.2915 -0.000108084 -4.47941e-06 29.1421 5.41342 -3.38195 -2.19248 -6.46944 -1.22534e-07 -168.8 11.097 -30.3003 39.0811 -6.73843e-06 -1.23785e-05 -0.527393 0.105279 77.2422 40.9854 -6.48686e-06 -1.26872e-05 6.73554 -16.4712 -49.1238 11.7543 -2.30145e-07 3.05095e-06 0.407726 -0.490681 -21.2268 -2.19251 6.46944 -1.45247e-06 -163.071 8.92454 174.598 -39.0811 -0.00228153 -0.0401928 0.226211 -0.439262 24.2369 -40.9854 7.72618e-06 5.99936e-06 10.507 2.07641 -69.8336 -11.7543 -5.6619e-06 -5.58687e-06 -0.00404729 0.00322181 -16.5737 
0 0 0 0 0 -0 253.84 89.7867 1.65638 65.7528 -70.8884 -22.5318 15.7357 5.1072e-06 -5.51764e-07 169.365 83.8891 -165.97 8.98455 -0.406207 -4.3199e-07 -5.91504 11.5908 7.41482 16.3773 -1.3905e-06 -6.99897e-07 -7.60645 18.535 2.55616 6.45672 -1.25837e-06 -1.02172e-07 -3.68816 19.8625 -3.98122 12.9942 -0.242716 4.98039 -89.1619 -2.30642 -85.0225 5.34809 -7.22636e-06 -6.2814e-07 -55.3599 -12.7835 30.5096 24.3286 1.87007e-05 4.90208e-06 0.9212 6.20659 -8.45862 22.2916 -9.88446e-07 4.63217e-06 2.93257 5.26216 1.1091 12.9945 -0.242716 -4.98039 89.781 3.70919 -101.619 -5.34813 -1.25947e-06 -3.79883e-06 -49.7015 -25.454 5.10379 -24.3289 0.000322201 -8.65921e-06 1.31213 5.46839 -13.5243 -22.2915 -0.000108084 -4.47941e-06 29.4812 5.39985 -2.93232 -2.19248 -6.46944 -1.22533e-07 -169.63 14.1825 -34.5174 39.0811 -6.73843e-06 -1.23785e-05 -0.497509 0.122976 74.3861 40.9854 -6.48686e-06 -1.26872e-05 6.44612 -16.7353 -51.0586 11.7543 -2.30145e-07 3.05095e-06 0.385588 -0.461868 -20.9622 -2.19251 6.46944 -1.45247e-06 -163.794 8.63055 175.663 -39.0811 -0.00228153 -0.0401928 0.200436 -0.404767 23.2867 -40.9854 7.72618e-06 5.99936e-06 10.4757 2.23218 -70.0175 -11.7543 -5.6619e-06 -5.58687e-06 -0.0169488 0.0136286 -16.5734 
0 0 0 0 0 -0 252.98 89.924 1.97636 66.788 -71.5381 -21.8172 15.7357 5.1072e-06 -5.51764e-07 169.7 83.2121 -166.492 8.98455 -0.406207 -4.3199e-07 -5.77896 12.9613 7.10074 16.3773 -1.3905e-06 -6.99897e-07 -7.80487 19.1679 2.04938 6.45672 -1.25837e-06 -1.02172e-07 -3.72538 19.2355 -4.35447 12.9942 -0.242716 4.98039 -89.1768 -2.11936 -83.7665 5.34809 -7.22636e-06 -6.2814e-07 -53.3853 -13.3723 31.1596 24.3286 1.87007e-05 4.90208e-06 1.09475 6.98697 -8.92687 22.2916 -9.88446e-07 4.63217e-06 3.12772 5.24965 1.44201 12.9945 -0.242716 -4.98039 89.8711 3.41544 -102.837 -5.34813 -1.25947e-06 -3.79883e-06 -50.2667 -25.3684 3.39205 -24.3289 0.000322201 -8.65921e-06 1.36721 5.64267 -13.6538 -22.2915 -0.000108084 -4.47941e-06 29.9302 5.38424 -2.43307 -2.19248 -6.46944 -1.22533e-07 -170.221 16.3496 -37.4702 39.0811 -6.73843e-06 -1.23785e-05 -0.410492 0.143908 68.5729 40.9854 -6.48686e-06 -1.26872e-05 5.97569 -16.0855 -52.3613 11.7543 -2.30145e-07 3.05095e-06 0.398854 -0.479119 -21.1205 -2.19251 6.46944 -1.45247e-06 -164.392 7.764 176.791 -39.0811 -0.00228153 -0.0401928 0.171863 -0.367057 22.0134 -40.9854 7.72618e-06 5.99936e-06 10.2593 1.76054 -69.9229 -11.7543 -5.6619e-06 -5.58687e-06 -0.00704234 0.00569931 -16.5737 
0 0 0 0 0 -0 252.092 90.063 2.3655 68.0116 -71.8654 -21.0991 15.7357 5.1072e-06 -5.51765e-07 170.582 82.625 -167.562 8.98455 -0.406207 -4.3199e-07 -5.82198 14.1747 6.79314 16.3773 -1.3905e-06 -6.99897e-07 -7.92249 19.6263 1.49177 6.45672 -1.25837e-06 -1.02172e-07 -3.77697 18.5624 -4.65281 12.9942 -0.242716 4.98039 -89.2393 -1.84686 -82.606 5.34809 -7.22636e-06 -6.2814e-07 -51.1827 -14.203 31.7281 24.3286 1.87007e-05 4.90208e-06 1.3149 7.44255 -10.0469 22.2916 -9.88446e-07 4.63217e-06 3.54608 5.25058 1.41736 12.9945 -0.242716 -4.98039 89.934 3.33597 -103.866 -5.34813 -1.25947e-06 -3.79883e-06 -50.6655 -24.9058 1.90445 -24.3289 0.000322201 -8.65921e-06 1.3952 5.87673 -13.39 -22.2915 -0.000108084 -4.47941e-06 30.9439 5.36474 -1.82842 -2.19248 -6.46944 -1.22533e-07 -170.945 17.3037 -39.081 39.0811 -6.73843e-06 -1.23785e-05 -0.313718 0.165651 59.9921 40.9854 -6.48686e-06 -1.26872e-05 5.86031 -16.0432 -52.6244 11.7543 -2.30144e-07 3.05095e-06 0.384165 -0.460051 -20.9452 -2.19251 6.46944 -1.45247e-06 -164.914 6.81427 177.811 -39.0811 -0.00228153 -0.0401928 0.143441 -0.327839 20.5479 -40.9854 7.72618e-06 5.99936e-06 9.96201 1.14633 -69.7368 -11.7543 -5.6619e-06 -5.58687e-06 0.0101703 -0.0105352 -16.6553 
0 0 0 0 0 -0 251.1 90.1404 2.77754 69.3486 -71.6171 -20.3548 15.7357 5.1072e-06 -5.51765e-07 171.817 82.2142 -168.926 8.98455 -0.406207 -4.3199e-07 -6.04397 15.0437 6.61119 16.3773 -1.3905e-06 -6.99897e-07 -7.94776 20.0189 0.900795 6.45672 -1.25837e-06 -1.02172e-07 -3.59263 17.7837 -4.98672 12.9942 -0.242716 4.98039 -89.3045 -1.60336 -81.5445 5.34809 -7.22636e-06 -6.2814e-07 -49.2119 -14.9685 32.2317 24.3286 1.87007e-05 4.90208e-06 1.80952 8.48807 -12.0785 22.2916 -9.88446e-07 4.63217e-06 4.28805 5.25491 1.30302 12.9945 -0.242716 -4.98039 89.992 3.11595 -104.853 -5.34813 -1.25947e-06 -3.79883e-06 -51.1994 -24.9898 0.914999 -24.3289 0.000322201 -8.65921e-06 1.43539 6.20072 -13.0703 -22.2915 -0.000108084 -4.47941e-06 31.3525 5.3593 -1.658 -2.19248 -6.46944 -1.22534e-07 -172.179 17.0862 -38.8437 39.0811 -6.73843e-06 -1.23785e-05 -0.225997 0.179884 48.9273 40.9854 -6.48686e-06 -1.26872e-05 5.69519 -15.6517 -53.219 11.7543 -2.30145e-07 3.05095e-06 0.401054 -0.48197 -21.1468 -2.19251 6.46944 -1.45247e-06 -165.409 7.45562 178.819 -39.0811 -0.00228153 -0.0401928 0.111142 -0.271451 18.9772 -40.9854 7.72618e-06 5.99936e-06 9.85917 1.59621 -69.822 -11.7543 -5.6619e-06 -5.58687e-06 0.0138433 -0.0143586 -16.6849 
0 0 0 0 0 -0 249.898 90.0999 3.19527 70.5981 -71.0373 -19.5849 15.7357 5.1072e-06 -5.51765e-07 172.862 81.8507 -170.074 8.98455 -0.406207 -4.3199e-07 -6.25916 15.8075 6.47974 16.3773 -1.3905e-06 -6.99897e-07 -7.91407 20.1717 0.282287 6.45672 -1.25837e-06 -1.02172e-07 -3.39048 16.9288 -5.22307 12.9942 -0.242716 4.98039 -89.3561 -1.43277 -80.7955 5.34809 -7.22636e-06 -6.2814e-07 -47.0779 -16.5795 32.7527 24.3286 1.87007e-05 4.90208e-06 2.40983 9.27671 -14.6298 22.2916 -9.88446e-07 4.63217e-06 4.89046 5.26129 1.13243 12.9945 -0.242716 -4.98039 90.0311 2.7792 -105.642 -5.34813 -1.25947e-06 -3.79883e-06 -51.8995 -25.302 0.300521 -24.3289 0.000322201 -8.65921e-06 1.45558 6.40371 -12.8433 -22.2915 -0.000108084 -4.47941e-06 30.8858 5.34242 -1.14984 -2.19248 -6.46944 -1.22534e-07 -174.375 15.5144 -36.2507 39.0811 -6.73843e-06 -1.23785e-05 -0.142107 0.180739 35.4366 40.9854 -6.48686e-06 -1.26872e-05 5.26081 -13.5965 -52.6548 11.7543 -2.30144e-07 3.05095e-06 0.401543 -0.482619 -21.1527 -2.19251 6.46944 -1.45247e-06 -165.707 8.175 179.952 -39.0811 -0.00228153 -0.0401928 0.0880932 -0.228812 17.5774 -40.9854 7.72618e-06 5.99936e-06 9.77729 1.84069 -70.131 -11.7543 -5.6619e-06 -5.58687e-06 0.0179783 -0.0186619 -16.7183 
